#!OML:ASF F:\VICON\USERDATA\INSTALL\rory3\rory3.ASF
:FULLY-SPECIFIED
:DEGREES
3619
root 0.166813 18.2713 0.0528477 27.3735 0.904522 -2.71804
lowerback 8.1924 -0.799529 2.9182
upperback -1.03419 -0.748096 0.376049
thorax -5.71463 -0.455177 -1.15144
lowerneck -1.66956 -1.87521 -3.25903
upperneck -4.52235 -2.50309 -0.254111
head -1.07184 -1.20017 0.469886
rclavicle 1.12313e-014 5.36719e-015
rhumerus -32.9192 12.6226 -86.738
rradius 128.528
rwrist 28.4533
rhand 4.71554 5.89022
rfingers 7.12502
rthumb 30.0986 -21.6791
lclavicle 1.12313e-014 5.36719e-015
lhumerus -33.5687 -7.0839 89.6384
lradius 116.701
lwrist -24.9939
lhand -11.0321 15.0452
lfingers 7.12502
lthumb 14.9896 44.4826
rfemur -35.0865 38.1731 -1.76616
rtibia -7.33515e-014
rfoot -38.4354 -42.0116
rtoes 45.3616
lfemur -39.9842 -38.8267 8.19218
ltibia 15.2414
lfoot -28.1102 43.6967
ltoes 28.3024
3620
root 0.159188 18.2715 0.05561 27.3288 1.19611 -2.72622
lowerback 8.14648 -0.898104 2.90902
upperback -1.04796 -0.883698 0.341998
thorax -5.70925 -0.522311 -1.16445
lowerneck -1.80233 -1.86114 -3.20474
upperneck -4.30135 -2.47631 -0.263209
head -0.98175 -1.19051 0.454166
rclavicle 1.68967e-014 -2.38542e-015
rhumerus -33.1784 12.7285 -86.6313
rradius 128.573
rwrist 28.3291
rhand 4.82323 5.86049
rfingers 7.12502
rthumb 30.2013 -21.6901
lclavicle 1.68967e-014 -2.38542e-015
lhumerus -33.7644 -7.14623 89.6567
lradius 116.693
lwrist -25.2901
lhand -10.7746 15.0741
lfingers 7.12502
lthumb 15.2376 44.4929
rfemur -34.9094 38.0749 -1.53139
rtibia -4.81059e-014
rfoot -38.4527 -42.1152
rtoes 45.2137
lfemur -40.1536 -39.1299 8.48309
ltibia 15.2843
lfoot -27.9292 43.9719
ltoes 27.8889
3621
root 0.15305 18.2718 0.0625371 27.2562 1.28811 -2.84984
lowerback 8.08854 -0.904143 2.8944
upperback -1.08123 -0.895707 0.32505
thorax -5.71188 -0.528454 -1.17278
lowerneck -1.90578 -1.82925 -3.12561
upperneck -4.05575 -2.42803 -0.311523
head -0.890284 -1.17018 0.422576
rclavicle -1.98785e-016 -1.03368e-014
rhumerus -33.5062 12.7454 -86.5694
rradius 128.611
rwrist 28.2792
rhand 4.89127 5.81676
rfingers 7.12502
rthumb 30.2663 -21.722
lclavicle -1.98785e-016 -1.03368e-014
lhumerus -33.9658 -7.4744 89.8457
lradius 116.554
lwrist -25.2318
lhand -11.0154 15.492
lfingers 7.12502
lthumb 15.0056 44.9283
rfemur -34.8475 38.1914 -1.34947
rtibia 4.31363e-014
rfoot -37.9895 -42.6414
rtoes 44.5428
lfemur -40.2033 -39.4767 8.82305
ltibia 15.3313
lfoot -28.6652 44.0861
ltoes 28.3991
3622
root 0.146306 18.272 0.0716355 27.1375 1.37243 -3.00855
lowerback 8.06205 -0.889346 2.89167
upperback -1.12776 -0.874693 0.355799
thorax -5.74434 -0.518371 -1.1418
lowerneck -2.07781 -1.81982 -3.12672
upperneck -3.73656 -2.4049 -0.348309
head -0.763926 -1.16248 0.40646
rclavicle -8.15017e-015 1.31198e-014
rhumerus -33.816 12.7083 -86.4469
rradius 128.646
rwrist 28.2893
rhand 5.01904 5.66351
rfingers 7.12502
rthumb 30.3881 -21.8528
lclavicle -8.15017e-015 1.31198e-014
lhumerus -34.2193 -7.86386 90.11
lradius 116.355
lwrist -25.1658
lhand -11.3779 15.8841
lfingers 7.12502
lthumb 14.6564 45.3461
rfemur -34.727 38.3488 -1.10572
rtibia -2.82274e-014
rfoot -38.1819 -42.6263
rtoes 44.6306
lfemur -40.1824 -39.7785 9.10909
ltibia 15.4187
lfoot -29.1584 44.2505
ltoes 28.4437
3623
root 0.139335 18.2724 0.0787466 27.0481 1.47633 -3.08009
lowerback 7.98611 -0.901764 2.79738
upperback -1.19169 -0.899845 0.399744
thorax -5.76707 -0.527869 -1.04008
lowerneck -2.3179 -1.78145 -3.11686
upperneck -3.32636 -2.33925 -0.389765
head -0.600005 -1.13495 0.385882
rclavicle -4.96962e-015 -1.98785e-015
rhumerus -34.0563 12.7053 -86.3028
rradius 128.656
rwrist 28.2908
rhand 5.07911 5.59009
rfingers 7.12502
rthumb 30.4454 -21.9156
lclavicle -4.96962e-015 -1.98785e-015
lhumerus -34.4613 -7.93799 90.2397
lradius 116.234
lwrist -25.3968
lhand -11.0926 15.8608
lfingers 7.12502
lthumb 14.9312 45.3027
rfemur -34.6255 38.4322 -0.95158
rtibia 1.49089e-014
rfoot -38.2555 -42.7346
rtoes 44.5951
lfemur -40.1142 -39.7872 9.12349
ltibia 15.5172
lfoot -29.1243 44.2356
ltoes 28.2943
3624
root 0.132769 18.2739 0.0868158 26.8496 1.6528 -3.15068
lowerback 7.9608 -0.940801 2.74936
upperback -1.21136 -0.954248 0.452663
thorax -5.77372 -0.552436 -0.950985
lowerneck -2.52387 -1.7033 -3.04145
upperneck -3.00394 -2.22485 -0.460631
head -0.47101 -1.08248 0.34744
rclavicle -4.96962e-015 2.78299e-015
rhumerus -34.3634 12.569 -86.2286
rradius 128.714
rwrist 28.322
rhand 5.03925 5.65387
rfingers 7.12502
rthumb 30.4074 -21.8588
lclavicle -4.96962e-015 2.78299e-015
lhumerus -34.6326 -8.00305 90.3187
lradius 116.158
lwrist -25.509
lhand -10.7363 15.8413
lfingers 7.12502
lthumb 15.2745 45.2573
rfemur -34.3329 38.5047 -0.643797
rtibia -1.19271e-014
rfoot -38.0546 -42.9939
rtoes 44.3508
lfemur -39.7997 -39.6121 8.88016
ltibia 15.5922
lfoot -28.6138 44.019
ltoes 27.8872
3625
root 0.126101 18.2756 0.0977534 26.5074 1.85615 -3.24922
lowerback 8.04475 -0.974784 2.74323
upperback -1.20548 -0.993546 0.518813
thorax -5.81546 -0.570753 -0.872212
lowerneck -2.65812 -1.6654 -2.96536
upperneck -2.75344 -2.16841 -0.548745
head -0.375511 -1.05798 0.305217
rclavicle -4.77083e-015 -8.74653e-015
rhumerus -34.9033 12.2414 -86.2454
rradius 128.864
rwrist 28.4648
rhand 4.89606 5.85782
rfingers 7.12502
rthumb 30.2708 -21.6801
lclavicle -4.77083e-015 -8.74653e-015
lhumerus -34.7683 -8.12126 90.4172
lradius 116.065
lwrist -25.4425
lhand -10.5882 15.9026
lfingers 7.12502
lthumb 15.4171 45.3077
rfemur -33.8196 38.6305 -0.157441
rtibia -3.22031e-014
rfoot -37.5899 -43.4527
rtoes 43.7406
lfemur -39.2862 -39.5148 8.55806
ltibia 15.6385
lfoot -28.2747 43.7027
ltoes 27.7279
3626
root 0.122052 18.2778 0.112647 26.2533 1.99325 -3.26508
lowerback 7.9948 -0.985515 2.65038
upperback -1.24273 -1.01479 0.58051
thorax -5.82404 -0.577509 -0.753283
lowerneck -2.87876 -1.66707 -2.91772
upperneck -2.38441 -2.15906 -0.63699
head -0.229779 -1.05859 0.26614
rclavicle -6.75868e-015 1.59028e-015
rhumerus -35.3504 11.9828 -86.2873
rradius 128.967
rwrist 28.6678
rhand 4.71004 5.94313
rfingers 7.12502
rthumb 30.0934 -21.6272
lclavicle -6.75868e-015 1.59028e-015
lhumerus -34.9733 -8.33561 90.6554
lradius 116.054
lwrist -25.1947
lhand -10.9272 16.3992
lfingers 7.12502
lthumb 15.0906 45.8291
rfemur -33.4208 38.7352 0.140025
rtibia 5.78463e-014
rfoot -37.2957 -43.799
rtoes 43.2977
lfemur -38.8283 -39.3187 8.12244
ltibia 15.6882
lfoot -27.6287 43.4893
ltoes 27.2567
3627
root 0.11909 18.2794 0.128184 26.0541 2.12791 -3.23967
lowerback 7.87251 -0.97624 2.56597
upperback -1.31745 -1.01083 0.631972
thorax -5.83035 -0.572618 -0.653797
lowerneck -3.06149 -1.6648 -2.858
upperneck -1.99711 -2.14569 -0.7427
head -0.0854137 -1.05756 0.220691
rclavicle -3.57812e-015 2.38542e-015
rhumerus -35.6903 11.7475 -86.3094
rradius 129.063
rwrist 28.811
rhand 4.61741 5.95615
rfingers 7.12502
rthumb 30.005 -21.6302
lclavicle -3.57812e-015 2.38542e-015
lhumerus -35.1717 -8.40513 90.8504
lradius 116.12
lwrist -25.1954
lhand -10.822 16.4162
lfingers 7.12502
lthumb 15.192 45.8385
rfemur -33.0849 38.8006 0.356036
rtibia -4.09496e-014
rfoot -36.9866 -44.1548
rtoes 42.7271
lfemur -38.3137 -38.8243 7.48633
ltibia 15.6912
lfoot -26.0008 43.3904
ltoes 25.3716
3628
root 0.117301 18.283 0.144346 25.8394 2.35916 -3.24928
lowerback 7.74332 -0.989826 2.58632
upperback -1.39061 -1.02571 0.708437
thorax -5.83331 -0.579975 -0.584767
lowerneck -3.16743 -1.65016 -2.73137
upperneck -1.73756 -2.12298 -0.925947
head 0.00619481 -1.05076 0.142755
rclavicle -2.5842e-015 -1.59028e-015
rhumerus -35.9781 11.5543 -86.3613
rradius 129.133
rwrist 28.8176
rhand 4.40146 5.93636
rfingers 7.12502
rthumb 29.7989 -21.6871
lclavicle -2.5842e-015 -1.59028e-015
lhumerus -35.2544 -8.12279 90.8892
lradius 116.211
lwrist -25.5606
lhand -9.90406 15.4915
lfingers 7.12502
lthumb 16.076 44.8447
rfemur -32.6696 38.8142 0.70005
rtibia 2.64384e-014
rfoot -36.8921 -44.3592
rtoes 42.3876
lfemur -37.7665 -38.2137 6.843
ltibia 15.6735
lfoot -24.0621 43.1476
ltoes 23.2345
3629
root 0.11828 18.2862 0.162801 25.6474 2.59915 -3.17964
lowerback 7.54071 -1.01029 2.60634
upperback -1.46981 -1.05423 0.751254
thorax -5.8018 -0.594434 -0.550151
lowerneck -3.30056 -1.65001 -2.54345
upperneck -1.4298 -2.11974 -1.18407
head 0.115603 -1.05515 0.0320947
rclavicle 2.28602e-015 -5.1684e-015
rhumerus -36.2665 11.4001 -86.4647
rradius 129.161
rwrist 28.6445
rhand 4.04195 5.88886
rfingers 7.12502
rthumb 29.4558 -21.7956
lclavicle 2.28602e-015 -5.1684e-015
lhumerus -35.5303 -8.34348 91.0741
lradius 116.325
lwrist -25.4605
lhand -10.0215 15.6505
lfingers 7.12502
lthumb 15.963 45.0127
rfemur -32.2405 38.7745 0.965119
rtibia -1.98785e-015
rfoot -36.8306 -44.5308
rtoes 42.0994
lfemur -37.3112 -37.7806 6.25933
ltibia 15.6323
lfoot -22.8346 42.7374
ltoes 22.0242
3630
root 0.122329 18.289 0.181518 25.4542 2.73315 -3.11608
lowerback 7.29055 -1.00346 2.62762
upperback -1.52763 -1.04852 0.792946
thorax -5.71964 -0.591484 -0.52292
lowerneck -3.50352 -1.66924 -2.42438
upperneck -1.04193 -2.13532 -1.39653
head 0.263024 -1.0702 -0.0548584
rclavicle 3.67752e-015 3.97569e-015
rhumerus -36.514 11.136 -86.4747
rradius 129.294
rwrist 28.8084
rhand 4.17086 5.90914
rfingers 7.12502
rthumb 29.5788 -21.7536
lclavicle 3.67752e-015 3.97569e-015
lhumerus -35.8418 -8.77959 91.2168
lradius 116.335
lwrist -25.1865
lhand -10.8511 16.0826
lfingers 7.12502
lthumb 15.1639 45.507
rfemur -31.8609 38.818 1.14823
rtibia 1.68967e-014
rfoot -36.477 -44.8989
rtoes 41.4822
lfemur -36.8052 -37.3334 5.63313
ltibia 15.5637
lfoot -21.768 42.3603
ltoes 20.9897
3631
root 0.126494 18.2933 0.198387 25.2029 2.81126 -3.00441
lowerback 7.11723 -0.987847 2.54093
upperback -1.58934 -1.03684 0.862415
thorax -5.68238 -0.581835 -0.405572
lowerneck -3.74357 -1.66487 -2.42364
upperneck -0.553288 -2.11051 -1.55356
head 0.450545 -1.06641 -0.106734
rclavicle -2.48481e-015 6.75868e-015
rhumerus -36.7247 10.7072 -86.3757
rradius 129.541
rwrist 29.271
rhand 4.78586 6.10607
rfingers 7.12502
rthumb 30.1657 -21.4511
lclavicle -2.48481e-015 6.75868e-015
lhumerus -35.9199 -8.59857 91.0665
lradius 116.252
lwrist -25.4852
lhand -10.2775 14.8763
lfingers 7.12502
lthumb 15.7164 44.2581
rfemur -31.441 38.9017 1.28855
rtibia -6.16232e-015
rfoot -35.7795 -45.4974
rtoes 40.4139
lfemur -36.1426 -36.6871 4.75914
ltibia 15.4787
lfoot -20.1142 41.9301
ltoes 19.0706
3632
root 0.129533 18.2969 0.215754 24.9338 2.90605 -2.90127
lowerback 6.98226 -0.981379 2.4216
upperback -1.67439 -1.0357 0.980143
thorax -5.69023 -0.575871 -0.217453
lowerneck -4.01954 -1.6176 -2.40148
upperneck 0.0178169 -2.02397 -1.78919
head 0.670206 -1.03462 -0.186196
rclavicle -8.05078e-015 3.77691e-015
rhumerus -36.9555 10.3962 -86.3955
rradius 129.727
rwrist 29.4574
rhand 5.07281 6.27631
rfingers 7.12502
rthumb 30.4394 -21.2305
lclavicle -8.05078e-015 3.77691e-015
lhumerus -36.1217 -8.97035 91.4915
lradius 116.394
lwrist -25.1449
lhand -11.1556 15.8301
lfingers 7.12502
lthumb 14.8706 45.2764
rfemur -30.9913 38.9825 1.4667
rtibia 2.28602e-014
rfoot -35.4411 -45.8662
rtoes 39.7792
lfemur -35.5274 -36.0701 3.93398
ltibia 15.4341
lfoot -18.2658 41.5802
ltoes 16.5843
3633
root 0.134498 18.3 0.235607 24.7095 2.97636 -2.90001
lowerback 6.7767 -0.934612 2.45565
upperback -1.77787 -0.968826 1.09603
thorax -5.67895 -0.542672 -0.125992
lowerneck -4.24624 -1.5906 -2.24376
upperneck 0.5593 -1.96979 -2.12352
head 0.872529 -1.02035 -0.318742
rclavicle 5.41688e-015 -1.78906e-015
rhumerus -37.2433 10.1549 -86.5044
rradius 129.865
rwrist 29.3352
rhand 5.02899 6.25196
rfingers 7.12502
rthumb 30.3976 -21.2626
lclavicle 5.41688e-015 -1.78906e-015
lhumerus -36.2885 -8.91162 91.526
lradius 116.597
lwrist -25.2229
lhand -10.9081 15.2577
lfingers 7.12502
lthumb 15.109 44.6863
rfemur -30.6382 39.1069 1.6692
rtibia -1.82882e-014
rfoot -34.9821 -46.3613
rtoes 38.9194
lfemur -34.9693 -35.4951 3.29173
ltibia 15.4046
lfoot -17.2806 41.0752
ltoes 15.3679
